P3 60 60 255
111
204
71
108
209
64
107
222
56
103
205
58
104
222
53
95
196
51
84
169
47
96
195
52
100
210
52
98
206
51
89
189
46
99
211
50
85
176
44
88
183
47
98
209
50
95
200
48
86
169
49
100
201
55
108
213
62
96
198
52
87
176
48
94
196
48
102
216
53
96
185
57
95
194
51
91
178
53
118
218
74
104
218
55
105
224
54
101
208
54
106
225
55
106
224
54
99
211
50
87
176
47
90
187
47
92
192
48
99
203
54
101
209
54
92
192
48
102
212
54
101
214
52
100
216
49
99
195
58
83
190
37
91
204
42
98
207
50
100
215
50
101
214
52
92
201
45
82
190
35
89
196
43
99
216
49
85
183
43
81
187
35
91
194
47
92
183
51
88
183
47
97
201
52
95
198
50
92
193
48
113
211
71
101
188
63
105
211
59
103
205
57
97
203
52
99
181
63
96
194
52
101
210
54
89
183
48
95
198
50
97
205
49
87
183
45
86
181
45
80
165
42
98
206
51
86
177
46
78
158
43
82
168
44
91
179
52
84
174
44
90
187
47
93
194
49
97
202
51
102
198
60
89
173
52
95
183
57
96
184
57
98
207
50
103
219
53
109
224
58
97
200
52
102
215
52
94
201
48
91
188
48
99
209
51
99
210
51
102
216
52
93
195
48
90
179
50
94
187
54
101
222
49
95
215
43
91
207
40
83
185
39
94
208
44
95
203
48
104
223
53
100
212
50
90
195
44
92
204
43
94
204
46
93
201
46
84
188
39
88
198
40
85
180
44
91
194
46
104
226
51
101
218
50
101
216
51
103
216
54
127
210
92
100
199
57
107
203
65
99
210
51
98
207
50
100
204
54
97
205
50
98
206
51
97
203
50
96
203
48
94
203
47
96
201
50
96
204
49
101
215
51
86
182
45
81
168
43
86
181
44
92
194
47
86
180
45
107
228
54
94
201
48
98
201
53
101
214
52
102
210
55
97
205
50
97
205
50
93
194
48
87
178
46
94
188
54
98
204
51
92
189
49
99
210
50
95
201
49
98
209
50
96
198
52
94
195
50
95
201
48
96
205
49
106
227
53
94
204
47
97
215
46
89
200
41
84
191
38
83
189
37
85
193
38
88
190
43
98
211
50
102
214
54
91
197
44
90
200
41
92
199
45
96
208
48
89
188
47
84
191
37
98
215
46
107
214
59
98
214
47
92
196
47
83
173
43
85
180
44
127
222
86
115
204
76
103
209
57
102
217
52
99
210
51
94
202
47
81
179
39
92
194
47
91
189
47
95
207
48
97
211
47
95
205
47
88
199
40
92
194
47
97
207
50
103
221
52
76
157
40
79
166
42
93
198
48
92
193
48
88
183
46
92
195
47
107
229
54
96
197
51
95
199
50
96
201
50
85
176
46
96
199
51
89
183
48
89
186
46
97
208
49
107
229
54
98
208
49
89
188
46
105
224
53
99
210
50
86
179
45
98
208
49
94
198
48
95
207
45
78
180
34
78
182
33
81
181
37
92
204
43
84
191
38
93
205
44
91
199
44
90
199
42
88
200
40
88
198
40
102
221
50
92
198
45
84
185
40
87
199
37
91
207
40
89
196
42
87
189
43
104
221
53
97
207
50
97
206
49
103
213
55
92
191
48
92
197
46
89
186
46
96
205
49
94
206
46
90
200
43
100
217
50
100
212
50
99
214
50
102
218
51
96
214
45
78
188
30
90
190
46
96
205
48
96
203
50
78
161
42
88
186
45
103
220
52
105
225
53
98
210
50
84
177
44
95
201
48
96
203
49
96
201
51
95
201
49
99
211
50
98
206
51
84
171
46
90
191
47
96
205
49
99
210
50
104
221
52
99
209
50
94
200
48
89
188
46
90
189
46
103
221
52
95
201
49
84
180
43
90
200
41
83
196
35
88
199
41
103
223
51
102
224
49
98
215
46
92
203
44
90
200
42
88
198
40
92
204
42
95
209
45
85
186
40
92
203
44
84
190
38
89
200
41
86
188
41
90
196
43
87
189
43
91
192
47
103
221
52
107
223
56
92
181
53
86
182
45
93
197
47
95
203
48
98
209
49
94
203
48
92
206
44
89
198
42
86
196
38
90
201
40
89
197
42
86
199
38
82
172
42
85
183
43
95
202
48
92
196
46
89
188
45
99
210
50
84
176
44
92
194
47
82
173
43
86
180
45
90
188
46
89
188
46
89
187
47
99
210
51
102
217
52
100
212
51
100
215
51
89
188
46
104
224
52
105
225
53
102
219
51
93
198
48
100
213
50
98
208
49
99
209
51
108
232
54
99
210
50
102
218
51
101
223
49
92
205
43
84
188
39
88
193
42
97
211
47
88
195
41
87
194
41
93
209
43
83
191
36
85
193
37
90
200
43
93
207
43
87
198
39
94
210
43
91
200
43
87
190
42
96
211
46
102
220
50
96
203
49
109
213
63
86
192
40
91
194
45
89
194
43
102
216
52
105
227
52
93
207
43
86
197
38
84
190
38
80
184
35
92
206
42
96
209
48
91
197
44
94
201
47
95
206
47
92
204
43
86
188
42
83
189
37
88
187
45
84
176
43
88
187
45
106
227
53
110
236
55
102
219
51
83
173
44
107
229
53
97
206
49
97
207
49
106
228
53
90
187
48
88
185
45
96
203
49
103
219
52
102
217
51
95
200
48
95
202
48
93
197
48
105
225
53
105
224
52
94
200
48
103
221
51
96
207
47
91
201
44
85
193
38
85
193
38
91
208
41
90
201
43
81
178
38
101
223
48
82
186
36
95
212
43
87
199
38
94
201
46
85
188
40
87
200
37
80
184
34
80
185
34
90
202
41
84
177
43
89
186
46
99
212
50
85
195
37
93
204
45
88
196
41
83
191
36
90
199
42
88
192
42
90
200
42
88
193
42
88
190
43
82
178
40
86
192
39
95
207
46
99
211
49
98
216
46
77
184
31
76
164
36
79
179
35
89
194
44
92
196
47
87
184
45
98
209
50
89
188
46
89
188
46
86
179
45
90
190
46
83
175
43
103
221
52
102
217
51
86
181
44
90
190
47
93
195
48
104
221
52
107
229
53
105
224
53
107
229
53
101
216
51
100
214
51
105
225
53
99
210
51
100
217
49
92
208
43
102
221
50
95
211
45
88
198
39
90
206
40
100
222
48
98
213
48
95
209
45
93
200
45
90
202
41
69
177
22
94
203
46
82
187
36
86
197
37
89
201
40
84
196
36
93
210
42
93
199
47
94
200
48
106
223
55
96
196
53
91
197
44
93
204
46
77
182
31
92
204
44
96
205
48
100
214
50
95
207
46
93
208
42
95
208
46
87
195
39
92
199
45
96
207
48
88
196
42
73
178
28
99
215
49
104
226
51
91
208
41
89
188
46
100
215
51
90
189
46
91
194
47
87
184
45
83
175
43
97
206
49
98
208
49
100
215
51
102
218
51
99
212
50
103
220
52
94
201
48
95
202
48
102
219
51
96
201
49
108
232
54
98
209
50
96
204
49
102
219
51
101
216
50
93
206
44
90
208
39
109
234
54
101
220
48
85
190
39
90
202
41
92
208
40
88
199
41
80
186
34
83
195
33
83
193
34
77
187
31
93
207
43
88
201
39
97
210
47
87
188
44
93
201
45
99
215
49
103
224
51
102
217
51
95
204
48
80
175
39
98
211
49
101
220
50
88
191
43
95
207
46
97
209
48
101
220
49
92
207
42
89
203
38
100
217
48
93
202
46
82
173
41
76
162
39
79
169
39
78
173
37
93
200
47
92
198
45
95
212
45
92
196
47
83
173
43
91
193
47
101
215
51
98
209
50
91
193
47
89
188
46
104
222
52
98
209
50
106
226
53
100
213
50
105
224
52
96
205
49
96
204
49
92
196
47
90
191
46
107
229
53
102
219
51
106
227
53
97
208
49
96
209
47
78
189
30
97
216
46
92
208
42
99
218
48
94
210
44
80
188
33
81
192
34
88
202
39
81
193
33
78
189
30
85
197
36
90
203
40
88
202
39
92
208
42
94
209
44
100
216
49
84
194
36
100
214
50
101
217
50
94
199
48
90
185
49
89
191
44
95
209
45
89
205
39
95
211
46
99
218
47
96
212
45
98
215
46
95
213
44
86
201
36
93
208
43
94
204
46
81
174
41
78
175
36
91
200
43
88
194
42
94
202
47
99
214
49
104
223
51
98
208
49
96
204
49
96
204
49
105
225
53
98
208
49
96
205
49
90
190
46
95
203
48
102
217
51
102
218
51
103
219
52
104
222
52
99
212
50
93
197
47
89
187
46
90
190
46
103
220
52
98
208
49
104
223
52
100
213
50
98
214
47
82
194
32
89
201
41
85
198
36
77
186
30
89
203
39
85
199
36
89
203
38
95
213
43
92
203
43
92
206
42
87
200
37
87
199
38
88
201
39
90
204
40
72
179
24
98
218
45
87
200
38
96
212
45
102
219
51
96
204
49
98
202
52
87
192
41
95
212
44
86
199
36
87
195
39
96
215
44
92
208
41
94
205
45
91
201
43
73
182
27
81
186
35
86
190
41
82
188
35
90
198
42
86
188
42
77
171
36
92
193
47
99
200
54
98
205
51
99
206
52
95
201
48
103
210
56
105
208
60
101
207
54
102
213
53
93
194
48
90
190
46
96
202
49
92
194
48
106
228
53
96
204
49
105
226
53
102
218
51
98
207
50
96
204
49
105
224
52
104
222
53
103
220
52
96
207
47
99
216
48
105
227
52
89
201
41
92
204
44
75
184
28
88
201
39
93
209
42
100
219
48
92
207
42
83
193
34
94
209
44
84
196
36
90
200
41
94
209
43
83
191
35
66
171
20
92
209
42
102
220
50
84
196
36
104
223
51
94
199
48
96
208
46
85
190
38
89
201
40
95
205
46
80
179
37
87
200
38
84
195
35
82
194
33
88
200
39
78
185
31
79
186
32
85
195
37
71
176
25
97
210
48
101
217
49
92
198
45
90
195
44
103
217
52
97
209
48
96
205
49
82
173
43
91
193
46
93
198
48
107
227
55
98
204
51
107
219
58
107
221
58
97
206
49
96
203
49
99
210
51
89
186
46
98
209
50
103
221
52
98
208
49
82
173
44
102
218
51
94
198
48
88
185
46
96
208
47
94
203
47
91
200
43
102
221
51
98
215
47
94
212
43
92
205
42
93
207
43
102
220
51
89
204
38
75
184
28
84
194
36
84
194
36
91
201
44
85
193
38
86
196
37
80
189
32
93
208
42
98
215
48
88
199
40
106
228
53
89
186
46
90
203
41
85
192
40
85
197
37
93
210
41
82
191
34
80
187
34
79
185
31
77
187
30
88
200
39
80
189
33
78
187
30
84
193
36
79
185
32
82
182
38
84
188
38
93
195
47
112
226
61
99
204
53
85
181
44
99
208
52
100
199
56
99
203
54
99
206
52
109
229
57
102
208
56
106
214
58
109
220
60
112
223
63
112
221
64
103
208
56
103
219
52
98
208
49
101
215
52
107
230
54
88
185
46
95
202
49
93
197
47
92
196
47
103
225
51
90
191
46
91
201
43
98
215
47
88
202
37
97
217
46
95
210
44
90
202
41
95
214
44
85
196
36
76
183
29
79
187
32
80
187
33
87
189
43
77
181
32
89
203
40
86
196
38
87
190
42
89
192
44
97
208
49
103
219
52
96
201
50
87
197
39
83
192
36
85
199
35
81
193
32
81
189
32
74
178
28
83
191
36
93
210
42
79
188
30
74
183
27
79
191
30
89
199
43
81
189
34
77
185
30
76
177
32
86
197
39
100
205
53
110
214
64
104
214
56
100
214
50
101
214
51
111
226
61
107
216
58
97
208
49
93
196
49
104
217
55
102
210
54
99
205
53
107
226
55
97
204
50
96
205
49
95
201
48
99
211
51
107
230
54
96
203
50
99
212
50
103
222
52
101
216
51
100
217
49
102
218
51
92
207
41
97
213
46
90
204
40
97
215
45
92
202
42
86
197
38
97
215
44
90
202
41
73
180
27
92
207
41
92
207
42
82
193
33
90
203
40
92
205
42
90
205
39
95
211
44
94
203
46
87
196
40
104
222
52
103
221
52
97
213
46
91
204
41
85
197
36
91
206
41
95
210
44
78
185
31
85
194
38
93
211
41
79
187
31
85
198
36
84
194
35
96
206
48
87
195
40
79
186
33
94
201
47
92
202
43
84
187
38
102
203
57
109
218
60
101
208
54
105
203
61
102
202
57
90
186
46
89
184
45
82
169
44
97
201
51
101
207
54
91
190
47
106
228
53
104
218
54
106
223
55
105
225
53
95
200
49
95
199
49
99
211
50
101
216
51
105
225
53
94
198
48
93
196
47
101
218
50
90
204
40
87
199
37
105
227
51
97
216
46
92
202
44
93
208
44
86
199
37
88
194
41
88
200
39
87
201
38
87
196
41
65
170
19
96
208
47
88
200
39
97
214
46
97
215
45
101
218
50
90
202
40
107
231
54
96
204
49
100
219
49
98
207
49
95
205
45
98
218
47
91
204
42
91
203
43
87
199
39
90
205
39
92
203
43
95
207
46
98
215
46
93
206
43
85
195
38
103
209
56
109
218
61
93
205
44
92
194
48
99
199
54
90
193
45
98
198
53
105
204
61
106
207
61
114
230
62
92
185
50
98
206
51
100
211
51
94
199
49
97
207
49
104
221
53
101
207
55
96
194
53
103
221
52
101
216
51
98
208
50
95
203
48
98
210
50
104
222
52
95
202
48
95
212
44
89
198
42
90
195
43
83
193
35
90
204
41
85
197
37
95
207
46
96
212
44
87
201
36
86
195
39
81
190
35
80
191
31
88
202
38
85
198
35
86
201
37
73
179
25
95
203
48
101
222
48
104
224
51
105
227
52
102
218
51
90
190
46
97
212
46
94
207
45
99
213
49
94
211
43
82
193
35
97
212
47
87
199
38
89
203
41
93
206
43
100
218
49
95
211
45
90
198
42
86
186
42
94
204
47
97
205
49
98
213
49
102
207
55
115
220
68
108
212
62
92
184
51
90
181
49
99
194
57
101
199
57
102
212
55
101
208
54
109
228
57
98
208
50
85
180
44
91
184
50
99
199
54
96
201
51
106
228
53
105
226
53
98
206
50
89
186
47
100
213
50
108
232
54
102
218
51
89
199
41
89
197
42
91
200
44
97
213
46
83
195
36
80
187
34
78
185
31
87
198
39
98
217
46
81
190
33
72
178
26
73
181
25
84
197
34
92
208
42
83
196
35
79
190
31
99
216
48
88
204
37
100
217
49
98
213
49
93
199
47
95
201
48
93
206
43
89
201
40
93
207
43
84
197
34
83
195
33
98
218
46
83
195
34
86
200
36
98
214
47
91
206
41
86
197
36
96
209
46
96
203
49
99
201
53
100
204
54
99
207
52
97
203
50
96
202
49
91
191
48
97
204
50
95
200
50
102
208
54
100
206
54
88
182
46
90
191
46
97
205
50
93
193
48
98
199
54
97
198
53
83
175
43
108
231
54
104
222
52
101
215
51
100
214
50
98
209
50
101
213
52
102
218
52
101
215
51
103
220
52
96
210
46
97
207
48
93
206
44
81
192
32
97
213
45
75
183
27
93
206
44
94
204
45
79
188
31
82
193
34
76
185
29
81
193
33
83
193
35
89
199
42
98
215
48
89
201
40
90
205
39
98
216
46
89
194
43
87
198
38
100
214
50
97
212
45
88
201
39
90
200
41
86
199
37
86
199
37
92
208
42
86
200
37
78
189
29
90
204
40
77
184
29
76
183
30
95
202
48
98
205
50
99
204
53
107
210
61
104
208
58
91
191
46
90
196
43
100
210
52
108
215
60
117
222
70
117
221
70
111
219
63
96
191
55
99
195
56
89
183
49
94
193
51
104
208
58
107
216
58
108
221
59
108
222
59
104
223
52
103
220
52
96
203
49
94
200
48
95
201
48
98
209
50
97
205
50
102
218
51
92
201
44
98
209
50
91
202
42
81
189
34
88
201
39
87
202
38
83
195
35
87
198
40
88
200
40
94
210
44
95
212
44
97
216
46
89
205
39
91
208
41
103
225
50
97
216
45
87
200
38
79
190
30
89
201
40
86
196
38
98
213
47
89
204
39
84
193
37
94
208
44
97
216
46
88
199
40
90
201
41
87
198
37
78
188
31
82
192
34
81
190
34
88
198
39
103
212
55
110
220
61
101
211
53
100
208
54
99
204
52
88
186
44
99
201
55
103
203
59
103
202
59
100
200
54
93
185
52
101
204
56
101
204
55
113
222
65
106
209
61
106
208
60
106
216
58
104
213
56
102
208
55
99
211
50
102
217
51
107
230
54
97
206
49
92
194
48
96
204
49
106
227
53
101
214
51
103
219
52
103
221
51
100
216
49
96
209
48
102
221
50
81
193
32
103
226
49
78
188
29
94
210
42
97
214
46
102
219
51
95
208
44
92
207
42
97
214
45
89
202
40
100
219
47
107
230
53
80
192
31
76
185
28
96
214
44
102
223
50
91
206
41
93
208
43
88
201
39
86
199
36
86
201
36
95
213
43
92
207
41
80
191
32
73
179
26
79
183
33
92
203
44
97
217
46
98
211
49
100
214
50
83
194
35
94
199
47
99
200
55
88
182
48
108
216
60
108
213
61
88
174
49
75
156
40
88
178
49
105
218
56
95
193
51
103
204
59
108
217
59
110
221
61
110
224
60
95
199
50
103
204
58
110
221
61
89
187
46
100
213
50
107
230
54
84
175
44
88
185
45
98
208
50
104
223
52
101
216
51
107
229
53
96
209
46
98
214
47
79
182
34
82
194
34
102
224
49
87
200
37
88
199
40
96
214
46
104
224
52
86
198
36
83
190
36
95
210
45
90
203
41
102
224
48
105
227
51
93
208
42
87
201
36
107
230
53
103
225
50
94
210
44
101
218
50
100
220
47
91
208
40
89
205
38
99
220
47
92
206
43
88
203
39
82
188
35
81
183
36
80
178
37
85
187
40
95
205
46
96
213
45
89
198
40
86
190
41
95
198
50
105
210
58
99
196
55
91
184
50
98
193
57
104
202
60
105
207
59
104
211
57
105
218
58
101
200
56
110
222
61
103
208
56
101
203
56
108
220
59
104
212
56
100
210
52
107
230
54
103
215
55
109
235
54
102
218
52
104
222
52
104
222
52
94
200
49
93
196
48
105
226
52
87
202
37
99
217
48
84
194
36
91
204
41
90
203
41
92
207
43
80
191
32
95
211
45
99
217
47
86
200
37
91
206
41
101
221
48
93
210
41
103
223
50
95
214
44
100
219
47
91
207
40
104
223
52
103
222
50
103
222
51
100
217
50
95
204
48
94
207
45
101
221
49
101
218
49
90
195
44
93
200
46
96
206
47
94
205
46
93
208
44
93
204
44
91
195
45
99
209
52
109
216
62
112
219
65
109
220
60
109
218
60
103
203
59
106
204
62
109
209
65
110
215
63
110
218
61
103
208
58
104
212
57
107
224
56
110
228
58
109
224
60
112
226
61
106
217
57
107
219
58
102
216
53
87
195
39
93
208
42
100
219
47
106
229
52
92
208
42
87
200
38
93
206
44
88
190
44
91
196
45
88
202
39
96
211
45
90
204
39
94
211
43
93
210
42
93
209
43
88
204
38
93
209
42
98
216
46
98
218
45
86
200
36
105
227
51
88
203
38
83
195
35
92
205
43
89
198
42
84
190
38
93
205
44
104
226
50
96
214
44
105
220
54
89
196
42
91
202
42
101
218
49
98
215
48
91
197
45
102
220
49
99
213
49
99
214
49
105
226
52
102
215
53
93
194
48
93
200
46
95
207
46
98
207
49
102
215
52
91
193
46
96
193
54
93
184
53
83
169
45
84
169
48
84
175
45
90
186
46
98
206
51
104
216
55
100
211
53
108
232
55
105
212
58
104
209
58
106
219
57
106
219
56
97
217
45
94
209
43
105
226
51
101
217
51
89
192
45
95
204
48
97
213
47
89
193
43
83
183
38
89
199
41
96
205
49
86
194
38
86
197
37
101
222
49
96
212
45
93
210
42
94
210
44
90
202
41
100
219
47
88
201
39
87
199
38
81
193
31
70
179
24
100
214
50
99
212
49
97
212
46
99
219
47
102
222
49
93
207
43
99
208
52
84
191
37
84
189
39
94
208
44
93
208
43
99
219
47
105
225
52
83
192
36
97
211
46
103
221
51
96
208
47
87
190
44
95
196
51
97
205
51
100
203
54
111
220
62
104
210
57
101
203
56
94
188
52
86
174
49
88
178
48
107
216
58
102
203
57
100
200
55
114
224
65
114
226
64
112
226
62
105
214
56
93
201
46
92
205
43
87
201
37
89
200
41
102
220
50
100
219
48
89
202
40
92
206
43
92
203
44
90
199
44
84
190
37
78
179
33
76
182
30
78
186
31
76
183
29
79
188
30
93
211
42
94
210
43
89
202
41
93
206
43
83
193
34
93
208
42
83
194
35
77
182
30
86
199
37
78
187
31
91
205
41
98
219
45
104
226
51
95
210
46
99
214
49
101
219
51
95
210
45
95
210
44
86
192
40
79
189
31
90
206
39
95
213
44
98
214
47
90
200
43
96
210
46
72
178
25
99
217
48
97
204
51
108
221
59
109
224
58
108
215
60
108
213
62
100
197
57
104
208
58
96
196
51
91
188
46
101
203
56
114
219
67
113
221
66
105
215
57
93
194
48
105
214
57
108
218
60
108
219
59
109
224
58
104
216
54
93
204
44
94
204
46
95
201
48
87
177
47
93
199
46
99
217
47
101
219
49
103
223
51
95
204
48
96
211
47
84
189
38
85
196
37
89
200
41
90
201
42
87
200
37
89
205
39
81
191
33
89
200
40
78
187
30
71
178
24
76
186
28
74
180
28
91
206
40
83
194
34
87
200
37
96
217
43
96
215
44
81
190
33
90
197
43
102
219
51
106
228
53
105
222
54
96
201
51
99
213
49
92
209
41
100
219
48
101
217
50
95
205
47
91
200
43
68
173
22
100
220
47
89
201
41
95
207
48
100
212
51
107
216
59
104
203
59
100
199
56
104
211
57
104
216
55
90
188
46
100
214
50
99
205
53
99
203
54
108
224
58
98
203
51
96
214
45
102
211
54
109
220
60
98
212
48
97
212
47
95
203
48
85
193
39
88
199
41
92
197
46
95
208
46
96
214
45
97
207
49
105
223
53
104
223
52
101
213
52
104
220
54
97
213
47
105
228
51
95
208
47
92
206
41
93
209
42
81
193
32
94
209
44
96
214
44
85
198
35
90
205
41
75
182
28
79
191
30
87
203
36
96
212
44
102
224
49
89
203
40
84
196
36
90
197
43
103
221
50
102
218
52
99
210
50
104
223
52
103
222
51
88
200
39
85
198
36
72
179
26
76
186
28
92
202
44
93
206
44
95
212
45
88
196
40
87
187
44
93
191
49
98
206
52
97
205
50
96
202
49
88
183
47
105
217
55
97
207
50
95
199
49
100
210
52
105
224
54
97
203
50
107
224
57
108
224
58
106
211
59
100
206
53
90
204
40
102
215
53
93
194
49
97
217
46
98
216
47
97
206
50
87
200
38
84
191
37
99
211
50
104
221
53
104
227
50
105
223
53
106
225
54
96
210
46
103
224
51
89
201
40
92
209
41
82
189
35
82
187
36
97
214
46
82
195
32
91
209
40
104
225
51
84
197
34
88
200
39
77
187
29
90
206
39
100
219
47
94
210
43
93
210
43
92
202
45
93
205
43
85
196
36
105
224
52
107
229
53
91
205
41
79
184
33
85
189
38
91
200
43
105
227
52
107
230
54
99
216
48
94
202
47
93
204
45
84
196
35
91
196
45
79
183
33
104
207
59
102
208
55
94
195
51
102
211
54
94
195
49
102
206
56
107
218
58
108
232
54
105
217
55
107
218
57
102
219
53
99
212
48
108
221
58
111
226
60
103
224
50
84
185
40
78
184
32
87
201
37
95
210
45
96
215
45
91
208
41
96
213
44
102
222
49
102
225
48
99
218
47
99
211
50
101
216
50
93
208
44
87
202
38
93
210
40
81
192
33
93
205
45
95
212
45
85
199
35
79
190
30
97
215
46
94
210
42
101
221
49
87
202
37
100
221
48
97
216
44
100
220
48
87
202
37
91
196
44
89
194
43
110
230
58
65
169
19
84
191
38
108
219
59
99
202
54
90
191
46
102
216
53
99
217
47
79
189
31
89
195
44
85
179
45
91
197
45
64
168
19
93
198
48
100
210
53
84
186
40
95
198
50
90
187
49
87
181
47
93
185
53
106
210
59
96
197
52
102
218
52
99
211
51
98
203
52
108
222
58
102
215
52
94
207
46
93
210
42
98
216
47
88
195
42
92
204
43
103
222
51
102
218
52
106
229
52
100
220
48
97
215
45
103
222
50
105
226
52
103
222
52
104
225
51
95
213
44
93
210
42
96
212
44
78
188
30
78
190
29
92
208
41
88
202
38
92
207
41
101
224
48
91
203
44
85
191
38
99
220
46
91
209
40
96
217
44
103
225
50
103
226
51
93
208
42
88
194
42
94
210
43
104
215
55
86
187
41
104
212
57
104
211
57
96
195
53
92
190
50
87
193
40
113
222
65
99
206
52
90
192
46
93
195
50
96
202
49
77
184
31
104
218
54
104
215
55
105
209
58
106
215
59
102
218
51
100
209
53
94
190
50
86
177
46
92
197
47
106
228
53
92
197
47
104
208
58
109
221
60
98
215
47
88
198
40
86
198
37
88
199
41
96
211
45
106
230
53
105
226
52
92
210
41
73
182
26
73
181
26
84
192
38
90
205
40
91
208
40
101
223
49
96
211
45
91
200
42
75
180
30
95
211
43
92
208
41
93
210
42
80
191
32
89
205
38
85
198
37
101
223
47
95
212
45
90
203
41
101
214
51
90
200
41
101
215
50
94
205
46
96
212
45
106
214
58
102
213
53
84
192
36
103
215
55
102
207
56
99
204
53
98
201
52
107
220
57
99
211
50
98
203
52
100
203
55
106
212
59
109
217
62
102
205
57
96
193
54
105
224
54
102
219
52
91
196
46
101
217
51
104
223
51
106
224
55
103
215
54
91
194
47
87
182
46
101
215
51
104
219
54
95
197
49
109
225
58
107
219
58
91
202
43
85
196
37
97
213
46
101
221
49
103
224
50
103
227
50
100
220
48
90
206
39
87
201
37
93
208
43
101
223
47
98
218
45
83
194
35
96
215
45
86
200
35
89
206
39
89
201
39
84
197
34
76
186
28
101
220
48
88
204
38
94
213
42
92
206
42
82
194
33
91
204
41
98
214
46
100
216
50
95
203
48
89
201
39
82
192
34
77
187
29
91
200
44
97
211
50
104
215
54
81
189
34
111
224
61
106
215
59
98
210
51
99
214
48
111
224
61
94
200
48
91
189
49
98
202
52
106
211
59
98
204
51
94
194
49
99
205
52
111
224
61
110
224
61
108
231
54
103
222
52
103
222
51
101
216
51
83
174
44
91
187
48
104
221
53
99
212
51
103
220
52
105
225
52
104
224
52
103
224
50
98
217
47
101
220
50
96
203
49
106
229
53
105
226
52
92
205
43
91
205
41
84
191
37
106
225
54
108
232
53
96
216
43
86
196
37
86
194
40
90
206
40
93
210
42
96
206
47
84
196
35
69
175
22
102
222
50
86
201
37
93
211
42
93
209
43
87
198
39
96
216
43
109
223
59
107
219
58
88
201
39
87
202
37
100
213
51
97
202
50
95
207
44
98
206
50
94
201
47
103
221
52
106
214
59
101
210
52
92
203
43
95
203
48
98
208
49
76
180
30
108
213
62
89
188
46
72
177
27
104
218
54
96
198
50
93
202
45
93
201
46
97
206
50
79
187
32
103
222
51
105
227
52
101
213
51
97
207
49
96
206
49
90
192
46
98
208
50
100
211
51
102
219
51
106
228
53
108
231
54
102
217
51
105
220
54
107
229
54
92
209
41
92
209
41
93
197
48
91
202
42
82
192
34
96
216
44
108
232
54
103
226
50
88
203
38
80
191
31
80
192
31
73
182
26
76
186
28
93
210
40
90
204
40
94
212
43
96
215
45
96
214
45
92
206
42
96
212
44
87
203
37
93
204
43
97
209
48
91
207
41
84
191
37
83
189
38
99
213
51
106
222
55
100
212
51
92
194
48
104
214
55
104
209
57
113
220
65
109
216
62
74
173
30
96
196
53
103
208
56
109
213
63
84
193
36
69
174
23
104
222
54
109
221
60
105
224
52
106
226
53
100
213
50
103
216
52
106
228
53
105
226
53
96
205
49
100
214
50
100
213
50
96
205
48
107
230
54
103
220
52
107
230
53
101
215
51
97
210
47
92
207
41
91
203
42
91
205
41
82
191
34
87
202
37
91
203
42
67
173
21
86
199
36
79
190
30
107
229
54
105
223
55
86
199
38
79
190
30
82
194
33
79
189
31
85
198
36
93
208
43
92
206
42
76
185
28
81
190
32
97
207
48
99
217
49
69
176
23
86
197
38
85
194
37
94
210
44
110
218
63
88
199
39
96
207
46
98
200
53
104
218
55
103
218
53
89
182
48
87
186
42
83
185
38
105
210
59
106
214
58
107
212
61
105
207
59
103
207
56
90
190
46
89
201
41
106
222
55
91
196
44
89
193
43
98
207
50
94
205
45
97
208
48
108
218
59
101
217
51
98
212
50
96
206
48
97
209
50
103
221
52
103
222
52
107
227
54
94
200
49
94
197
47
104
222
52
104
223
52
102
221
50
100
220
48
98
214
47
99
216
48
103
225
50
101
222
49
94
213
43
91
207
40
98
215
46
72
180
25
87
200
38
98
213
47
94
211
43
94
211
43
87
203
37
77
187
29
74
183
26
86
202
36
98
217
47
85
197
36
71
178
25
100
222
47
100
206
53
91
206
41
95
211
44
103
221
51
105
219
55
105
228
52
100
214
50
112
220
65
103
220
51
94
204
46
89
184
48
81
183
37
102
209
55
105
209
58
108
213
61
101
203
56
78
179
34
90
189
47
83
186
37
91
187
48
98
198
54
101
204
56
96
200
51
107
211
61
76
178
30
105
215
57
99
203
53
92
196
47
100
208
52
94
200
49
102
220
51
105
226
53
104
225
52
102
213
53
99
208
51
101
214
51
105
225
53
99
220
47
98
216
47
102
221
50
94
209
42
95
208
45
92
207
42
94
209
44
99
207
51
105
227
51
95
213
43
77
187
30
85
190
39
83
194
35
91
207
41
95
212
44
77
185
29
95
214
43
87
202
37
93
213
41
104
227
50
82
194
32
75
183
27
96
212
46
91
198
44
82
194
34
98
213
47
108
219
58
111
224
61
105
221
55
98
210
49
95
198
49
94
199
48
81
180
39
81
176
40
110
218
62
114
223
66
113
218
66
106
205
60
87
176
48
98
196
55
98
192
57
104
207
58
88
186
45
83
186
36
113
217
66
96
197
51
91
197
45
103
207
58
94
197
49
96
201
49
101
213
51
101
212
53
97
207
50
101
216
51
102
217
51
101
216
52
105
217
56
106
223
55
102
216
52
107
228
53
100
219
49
97
208
48
77
175
34
78
186
30
96
211
45
93
212
41
96
214
44
89
199
40
92
205
42
79
189
30
82
195
33
91
206
40
95
214
42
101
221
48
98
218
45
89
206
39
91
207
41
84
197
34
94
211
42
92
210
41
105
225
52
98
218
46
87
202
37
97
208
48
103
216
54
99
212
49
101
207
54
89
195
42
87
196
39
90
198
44
87
187
43
86
182
43
78
174
36
81
180
37
106
213
59
108
215
60
102
206
56
91
182
50
101
199
58
107
208
63
113
217
67
111
216
64
105
208
60
108
214
60
112
219
64
102
211
53
103
214
53
100
206
53
87
190
43
80
179
37
101
215
51
98
207
49
85
178
45
93
199
48
98
210
50
96
203
49
101
213
53
102
217
51
104
224
52
97
206
50
99
209
51
94
203
46
83
191
35
83
196
34
92
209
42
92
208
42
100
214
50
93
198
48
95
208
45
78
190
30
99
215
47
100
223
46
91
207
41
98
217
47
101
222
48
84
197
34
101
224
48
99
218
46
107
232
53
86
200
37
91
208
41
89
201
40
104
221
53
100
208
53
105
220
54
106
218
57
101
214
51
92
200
44
92
202
45
109
215
61
113
219
66
111
217
64
74
170
31
110
216
62
104
203
59
88
192
42
96
203
50
85
180
43
104
207
59
108
210
63
95
189
54
97
195
55
105
208
59
95
201
49
103
210
56
99
203
54
103
206
57
84
185
40
87
184
45
90
182
48
98
203
51
92
194
48
85
176
45
84
177
44
94
197
48
95
200
49
101
215
51
100
213
51
100
214
50
104
223
53
108
232
54
101
216
51
98
212
47
102
223
50
102
220
50
97
211
49
101
217
50
80
186
34
98
220
46
97
218
45
92
207
41
94
211
43
87
202
37
100
219
47
90
203
40
71
179
24
106
231
51
103
227
49
75
185
26
87
199
37
95
207
45
95
206
47
105
214
57
101
215
50
81
189
33
100
213
52
94
207
46
96
202
49
97
206
50
112
221
63
98
211
49
94
198
49
80
181
37
94
199
48
85
188
40
95
193
51
97
196
54
81
173
41
101
202
56
91
182
52
98
192
57
82
182
40
108
211
63
110
215
63
102
207
57
96
197
52
101
202
57
94
199
48
80
181
36
86
176
46
99
211
50
100
215
51
101
215
51
96
204
50
100
212
50
101
216
51
104
223
52
103
216
53
98
205
52
105
215
57
106
227
53
105
226
53
99
211
50
96
199
51
103
210
57
100
216
49
94
206
45
94
208
45
80
193
32
106
228
52
100
220
48
92
203
42
92
207
42
80
192
32
103
223
49
98
217
46
78
187
30
88
201
39
65
170
20
98
214
48
85
192
38
83
194
35
100
217
48
102
216
52
94
213
43
100
221
48
96
204
49
99
207
51
110
222
61
102
216
52
95
205
47
93
187
50
88
185
45
97
201
51
99
197
55
102
199
58
110
211
66
77
165
37
106
209
60
94
188
53
99
195
56
109
209
64
96
190
55
104
203
60
112
218
64
109
218
62
101
204
57
108
212
61
97
198
54
89
187
46
95
200
49
104
222
52
103
219
51
88
183
45
92
190
48
97
199
52
100
212
50
92
196
47
96
206
49
102
215
53
95
201
49
92
196
47
99
210
50
91
190
47
89
187
47
80
186
34
86
196
39
95
212
44
82
184
37
88
200
38
85
195
36
93
209
42
93
211
41
96
214
44
99
220
46
77
186
29
80
188
34
87
198
40
98
216
46
80
191
32
82
192
34
87
195
39
95
212
43
92
204
45
99
215
47
85
198
36
111
216
64
102
206
55
94
196
51
103
208
57
104
208
58
92
192
49
84
180
43
111
212
68
106
216
58
102
205
56
112
217
66
94
190
51
95
190
53
108
210
62
108
209
64
114
217
68
84
170
46
106
205
61
94
198
48
108
213
62
103
207
57
99
197
57
89
184
47
95
198
51
85
177
44
93
194
48
100
212
51
83
175
44
90
187
47
95
199
49
97
206
49
100
213
50
100
213
50
97
203
50
96
202
51
101
216
51
96
203
49
97
206
49
105
225
53
102
223
50
102
222
51
103
222
50
101
216
51
87
201
37
94
208
44
73
181
26
93
212
42
102
224
48
79
190
30
83
196
34
70
177
23
99
219
47
108
231
54
92
204
43
85
194
37
74
183
27
91
199
43
105
216
56
99
204
52
101
208
54
107
210
63
103
208
56
98
201
53
106
210
59
112
217
65
95
199
49
99
211
50
91
181
50
105
216
57
97
196
54
99
199
55
110
218
62
110
215
63
114
224
65
102
201
60
92
185
51
100
194
58
102
202
58
87
180
46
91
190
48
93
190
51
104
203
61
90
183
48
101
202
57
82
173
42
86
183
45
94
197
47
86
175
48
104
222
53
98
209
49
98
210
50
102
219
51
98
208
50
105
223
53
106
226
54
109
233
54
104
224
52
100
214
51
108
231
54
108
231
54
94
211
43
106
228
53
100
216
50
101
222
48
103
223
51
86
200
36
100
219
48
106
229
52
88
199
40
100
216
48
98
215
46
95
212
43
84
195
36
97
214
46
105
224
52
89
204
39
96
209
48
101
210
52
102
210
54
89
185
46
110
218
63
104
210
58
91
189
49
102
205
56
87
189
43
103
205
57
96
200
51
88
175
50
116
223
68
109
216
62
101
198
58
117
222
70
107
212
61
115
223
68
99
198
55
102
203
57
97
198
54
103
204
59
111
219
63
109
215
62
99
206
52
98
203
52
91
190
47
105
224
54
100
213
50
97
208
50
97
202
51
91
193
47
109
235
54
107
230
54
100
212
51
95
199
49
92
193
47
107
230
54
103
222
52
104
224
52
98
208
50
103
219
52
99
212
50
90
189
46
100
217
49
102
217
52
101
220
50
100
215
50
93
209
41
102
223
50
104
223
52
101
221
48
103
225
50
106
228
53
103
226
49
99
215
49
102
222
50
105
227
51
106
226
53
96
208
47
104
212
55
102
213
54
98
207
50
110
222
60
106
216
58
102
200
59
92
193
48
92
190
50
92
192
49
113
221
66
97
189
56
103
199
61
116
222
68
101
204
57
94
191
53
109
212
63
91
189
48
109
224
60
107
212
61
112
214
66
98
199
55
93
191
49
99
196
56
96
199
50
91
190
46
94
198
49
104
213
56
89
187
46
96
203
48
97
207
49
93
196
47
100
213
50
100
213
50
95
201
48
103
219
52
96
205
49
107
230
54
101
215
51
89
188
46
97
206
49
93
196
48
103
220
53
103
220
52
94
200
48
104
222
52
102
218
51
105
225
52
107
230
54
81
193
32
109
235
54
94
213
42
106
229
52
95
208
45
103
222
52
103
223
51
108
231
54
104
225
50
99
212
50
101
219
49
106
225
54
100
208
52
93
191
49
117
223
69
110
224
61
100
208
53
103
205
58
94
198
49
88
183
47
107
212
60
117
222
70
100
196
58
86
176
46
111
219
63
101
206
56
95
190
52
87
178
48
93
198
48
99
207
52
93
191
50
102
207
56
104
208
58
104
218
54
99
211
50
104
209
57
99
200
53
106
217
57
105
222
53
102
219
52
99
212
50
103
221
51
103
222
52
101
216
51
107
230
53
103
219
51
106
226
53
105
226
53
96
202
49
108
231
54
100
213
51
102
217
52
91
194
47
107
230
54
100
214
51
107
230
54
103
220
52
93
203
46
103
222
50
85
199
35
89
204
38
101
220
48
88
197
41
87
198
38
93
198
46
103
221
52
82
192
34
108
230
54
104
220
53
88
195
42
103
211
55
108
215
60
99
205
51
93
198
47
115
219
68
110
217
63
101
202
57
108
215
60
104
210
57
103
214
55
98
202
53
112
212
67
89
172
53
108
195
70
102
211
53
103
205
58
93
188
51
94
194
50
101
213
51
107
220
58
93
193
49
94
193
51
100
210
52
96
200
50
91
193
48
99
197
56
98
195
56
87
180
46
82
174
43
91
192
47
90
190
46
88
184
47
86
178
45
79
166
42
104
223
52
105
225
53
92
196
47
95
201
48
82
174
43
94
199
48
103
221
52
99
212
50
91
194
47
102
218
51
98
210
50
92
194
47
90
191
46
78
185
32
104
224
52
87
187
43
99
216
49
95
202
48
94
208
43
78
184
32
95
202
49
88
191
43
95
209
45
108
231
55
98
204
51
103
218
52
104
217
54
113
224
65
104
222
52
101
216
51
106
209
61
106
224
57
97
202
51
113
218
66
106
217
58
106
212
60
103
217
53
113
213
68
83
170
45
95
183
55
102
214
52
95
193
53
102
199
59
98
203
52
104
220
53
108
215
61
103
218
53
92
192
48
111
225
60
105
216
56
98
204
51
106
224
55
96
190
54
92
196
48
92
197
48
90
190
46
108
232
54
95
200
48
98
209
50
95
200
48
92
196
47
88
187
45
101
216
51
95
199
49
82
173
42
88
186
45
87
184
45
75
155
40
88
185
45
104
222
52
104
223
52
107
229
53
99
211
50
88
191
44
98
204
52
94
200
48
93
199
46
98
207
50
104
225
51
94
202
46
96
205
49
103
223
51
100
218
50
101
211
54
107
228
54
95
199
49
94
194
50
98
201
52
95
202
49
107
220
58
104
206
59
107
220
58
106
219
56
111
216
64
106
211
59
99
197
57
110
218
61
110
209
66
102
201
59
99
188
59
102
217
52
102
209
56
111
222
62
82
171
43
88
184
47
96
197
51
89
185
46
104
222
52
94
197
49
104
220
53
85
181
43
87
184
45
102
218
52
82
171
43
104
222
52
92
191
48
93
197
48
99
211
50
106
227
53
103
222
52
84
178
43
88
186
45
92
194
47
99
210
50
95
201
48
103
221
52
95
202
48
94
199
48
102
219
51
90
191
46
94
199
48
106
228
53
99
212
50
107
230
53
91
192
47
92
195
47
93
200
47
92
195
47
105
224
52
92
207
43
104
223
52
98
211
49
93
197
47
94
200
48
96
205
48
91
194
45
90
197
43
106
221
55
102
217
52
111
223
62
107
221
57
112
232
59
89
187
46
98
198
53
107
210
60
104
204
60
100
204
54
100
191
59
96
182
58
92
181
55
99
210
50
101
214
51
101
212
52
90
190
47
96
204
49
100
211
51
95
201
49
96
204
49
107
215
60
104
217
55
101
216
51
105
224
52
91
192
46
87
181
46
94
200
48
106
228
53
103
220
52
101
215
51
100
215
50
92
195
47
89
188
45
100
213
50
101
216
51
100
213
50
82
171
43
104
222
52
91
192
46
106
227
53
104
223
52
94
200
48
83
175
43
85
176
44
103
219
52
108
232
54
109
234
54
100
214
51
96
205
49
104
222
52
96
205
49
93
201
47
99
210
51
99
202
53
101
215
51
90
185
48
93
192
49
101
213
52
94
194
51
109
217
62
95
200
49
111
218
63
103
201
59
94
192
50
84
177
45
105
206
60
105
213
58
103
203
58
99
207
53
92
174
56
90
180
51
100
196
58
92
194
47
93
190
51
107
222
57
99
209
51
96
203
49
93
197
48
76
155
41
89
187
46
100
210
53
103
212
55
101
215
51
84
177
44
89
187
46
90
190
46
78
163
41
103
221
52
92
191
48
76
156
41
96
204
49
85
178
44
92
196
47
108
233
54
91
193
47
86
182
45
92
194
47
102
218
51
100
214
51
82
172
43
103
220
52
105
225
53
100
213
50
91
193
47
101
217
51
108
232
54
89
188
46
101
216
51
82
172
43
82
172
43
81
169
42
102
218
51
102
218
51
83
174
43
97
198
53
104
207
58
109
232
54
103
218
52
111
228
60
107
224
57
83
171
45
99
203
54
111
213
66
98
203
51
102
214
52
107
209
62
82
171
45
91
178
51
101
207
55
86
169
50
102
203
58
108
215
61
95
197
50
102
212
54
100
210
52
94
199
48
100
213
51
98
204
52
100
212
51
95
202
48
106
228
53
107
229
53
102
217
51
88
187
45
106
228
53
105
225
53
110
236
55
104
222
52
76
158
41
104
224
52
104
222
52
110
236
55
105
226
53
97
206
50
107
229
53
92
195
47
91
194
47
93
198
48
92
192
47
92
194
47
98
209
50
82
173
43
87
184
45
81
168
42
96
204
49
90
189
46
98
207
50
97
206
49
86
181
46
101
217
51
94
201
48
90
191
46
102
217
51
99
209
50
103
219
52
93
197
48
98
207
51
89
180
48
112
221
63
107
211
62
93
186
53
97
200
52
104
206
60
108
219
58
109
221
60
88
179
49
91
176
52
101
183
65
104
206
60
99
182
61
105
197
64
101
195
60
96
195
53
102
211
55
100
211
51
105
224
53
93
195
48
104
222
52
104
222
53
93
194
48
97
207
49
87
182
45
98
208
51
101
214
52
101
199
58
100
209
51
92
191
49
101
213
52
93
187
52
107
230
54
102
218
52
95
201
50
100
213
51
92
194
47
105
225
53
99
212
50
94
199
48
100
213
51
92
195
47
97
208
49
79
164
41
80
167
42
101
217
51
86
181
45
96
204
49
102
218
51
100
212
51
100
214
51
91
190
48
96
205
49
96
204
49
100
214
51
105
223
54
90
188
48
98
206
51
98
196
54
96
193
53
82
165
45
102
205
56
88
176
49
102
214
53
100
204
54
96
193
55
102
205
57
101
203
55
100
203
55
92
194
48
109
189
74
111
206
69
119
211
79
128
209
92
91
170
57
99
209
51
96
197
52
93
194
49
81
168
43
84
170
47
99
210
50
90
187
48
97
205
50
85
178
45
99
201
54
98
202
52
94
196
49
108
232
54
91
186
49
90
186
48
98
203
52
85
164
51
106
226
53
92
195
48
80
168
42
94
201
48
103
220
52
96
205
50
92
195
47
79
166
42
106
226
53
88
186
45
97
206
49
94
200
48
102
217
52
93
197
48
86
182
45
92
194
47
99
212
50
103
220
52
98
207
50
89
187
46
92
193
47
88
186
45
101
216
51
96
201
50
101
208
54
109
224
59
99
198
55
97
199
52
89
177
51
79
162
42
92
192
49
108
225
57
115
220
68
110
212
65
102
197
60
95
197
50
112
219
65
101
208
54
102
187
64
107
196
68
105
196
65
129
203
97
98
177
62
105
224
53
89
184
49
86
179
45
95
194
52
90
180
50
105
224
53
96
202
50
82
171
43
95
200
49
104
221
53
105
223
53
84
167
47
95
198
50
100
213
51
103
217
53
107
228
55
96
193
53
94
198
48
108
232
54
101
216
51
92
196
47
99
212
50
97
207
49
103
220
52
97
206
49
101
216
51
94
201
48
95
202
48
98
209
50
103
219
52
97
206
49
81
168
42
92
194
47
91
193
47
90
189
46
95
202
48
98
209
50
99
211
51
86
182
45
80
167
42
88
181
47
107
218
58
108
218
59
103
216
55
106
224
53
93
196
49
87
184
44
96
198
52
95
191
52
109
216
62
89
180
49
95
187
55
100
213
50
86
173
47
97
193
55
105
194
66
106
204
63
83
167
46
96
180
60
92
177
54
104
219
54
101
211
53
93
184
53
89
186
46
100
203
56
107
226
55
105
219
56
102
208
55
101
213
52
104
223
52
93
197
47
96
205
49
102
205
57
98
196
55
108
230
54
106
224
54
104
222
53
98
203
52
94
194
51
106
226
53
100
211
51
96
203
49
83
175
43
92
194
47
100
214
51
99
207
51
105
225
53
87
180
46
94
196
49
99
212
51
95
200
49
96
203
49
91
173
55
83
169
45
91
191
47
100
213
51
103
221
52
102
216
52
106
227
54
89
188
46
95
199
49
88
186
45
98
208
50
99
208
52
104
221
53
86
181
45
87
179
46
92
192
49
95
185
56
105
212
58
92
183
50
97
192
54
90
184
47
96
186
54
98
195
55
101
195
58
108
207
64
107
189
72
143
201
117
99
200
55
109
206
66
95
194
52
86
163
54
89
184
47
95
191
52
96
202
50
91
182
51
98
205
51
93
195
48
77
156
43
81
166
43
83
168
46
89
177
51
98
188
58
88
172
51
87
165
55
101
214
52
89
177
50
103
212
55
90
187
48
81
167
43
108
231
54
80
167
43
103
220
52
90
191
47
84
174
45
106
227
53
92
193
47
108
232
54
85
180
44
105
225
53
93
195
48
97
205
50
100
214
51
97
206
50
104
220
53
89
186
46
85
179
44
92
194
47
93
191
50
91
190
48
85
178
44
97
204
51
87
179
47
86
177
46
93
187
52
108
211
62
88
179
49
92
184
52
96
188
56
104
201
61
107
209
62
84
168
46
90
178
52
103
194
63
109
211
64
110
205
67
113
210
71
124
200
91
135
196
108
88
179
49
98
209
50
77
158
43
99
209
51
101
213
52
86
178
45
101
211
53
93
197
48
86
178
45
102
216
53
109
225
58
102
213
53
93
193
50
105
208
60
100
204
55
105
220
55
95
200
50
103
220
52
95
198
50
88
184
47
102
218
52
96
202
49
97
206
49
107
230
54
94
198
49
87
183
45
95
202
48
88
187
45
100
211
51
99
210
50
107
230
54
79
166
42
79
164
42
96
203
49
81
170
43
92
185
52
89
183
48
99
211
50
92
193
47
94
198
48
92
193
48
83
169
46
97
186
56
95
184
55
90
176
52
98
186
60
95
185
57
87
173
50
89
176
51
85
173
46
104
204
61
97
191
56
95
196
52
91
178
54
87
173
49
96
186
57
99
191
59
110
201
70
118
194
84
135
204
104
